<?xml version="1.0" encoding="utf-8"?>
<!-- Generator: Adobe Illustrator 18.0.0, SVG Export Plug-In . SVG Version: 6.00 Build 0)  -->
<!DOCTYPE svg PUBLIC "-//W3C//DTD SVG 1.1//EN" "http://www.w3.org/Graphics/SVG/1.1/DTD/svg11.dtd">
<svg version="1.1" id="Layer_1" xmlns="http://www.w3.org/2000/svg" xmlns:xlink="http://www.w3.org/1999/xlink" x="0px" y="0px"
	 viewBox="0 0 232.7 49.3" enable-background="new 0 0 232.7 49.3" xml:space="preserve">
<g>
	<path fill="#C60C30" d="M104.1,38.7c4.9-2,10.7-4.1,12.7-4.7l2.4,4.1c-2.9,0.5-10.2,2.3-16.7,4C93.8,44.6,87,47,80.4,49.3
		C86.3,46.3,94.6,42.6,104.1,38.7L104.1,38.7z M122.9,32.3c0.3-0.1,0.6-0.1,0.9-0.2c4.2-0.9,9.2-1.1,10.9,1c-0.5-1.9,1-4.7,2.3-6.2
		c0.3-0.3,0.7-0.7,1.1-1.1c1-0.8,2.3-1.6,3.9-2.5c12.4-6.6,42.1-15.5,64.2-23.3c-32.9,13.9-50.6,19.3-60.8,30
		c-4.2,4.4-6,8.3-6.8,13.3c-2.7-2.5-6-5.3-12.5-5.6L122.9,32.3L122.9,32.3z"/>
	<polygon fill="#747678" points="39.7,23.8 43.4,23.8 43.4,47 39.7,47 39.7,23.8 	"/>
	<polygon fill="#747678" points="75.3,23.8 101.3,23.8 101.3,26.1 90.1,26.1 90.1,43.6 86.4,45.4 86.4,26.1 75.3,26.1 75.3,23.8 	
		"/>
	<polygon fill="#747678" points="178.7,23.8 202.3,23.8 202.3,26.1 182.4,26.1 182.4,34.2 196.6,34.2 196.6,36.4 182.4,36.4 
		182.4,44.8 202.8,44.8 202.8,47 178.7,47 178.7,23.8 	"/>
	<polygon fill="#747678" points="206.7,23.8 232.7,23.8 232.7,26.1 221.5,26.1 221.5,47 217.8,47 217.8,26.1 206.7,26.1 206.7,23.8 
			"/>
	<path fill="#747678" d="M172.7,38.6c0,5.4-3.3,9-12.2,9c-8,0-12.6-2.6-12.6-7.6v-0.7l3.8,0v0.6c0,3.1,2.9,5.4,8.8,5.4
		c6.4,0,8.3-2.5,8.3-6.4V16.9c1.2-0.6,2.5-1.1,3.8-1.7V38.6L172.7,38.6z"/>
	<path fill="#747678" d="M51.2,41.6c3.1,2.5,6.2,3.6,10.4,3.5c1.8-0.1,3.3-0.1,5-0.6c1.6-0.4,2.7-1,3.5-1.7c0.8-0.7,1.2-1.4,1.1-2.1
		c0-0.8-0.7-1.6-1.9-2.4c-1.7-1.1-4.7-2-8.7-3.1c-3.3-1-6.3-1.9-7.5-2.7c-1.6-1-2.5-2.3-2.5-3.6c0-1,0.4-2,1.3-2.9
		c0.9-0.9,2.2-1.4,3.9-1.9c1.7-0.5,3.4-0.7,5.4-0.8c2.1-0.1,4.1,0.2,6,0.6c2.2,0.5,3.9,1.1,5.5,2.2l-1.9,1.9
		C69.2,27,67.5,26.3,66,26c-1.4-0.3-3-0.5-4.7-0.4c-2.2,0.1-3.8,0.4-5.2,1c-1.1,0.5-1.7,1.1-1.9,2.2c-0.2,1.8,1.2,2,3.5,2.9
		c1.9,0.8,4.3,1.4,5.8,1.9c2.2,0.7,4,1.2,5.4,1.7c1.4,0.5,2.5,1,3.3,1.6c1.5,1.2,2.3,2.5,2.3,3.7c0.1,1.8-1.1,3.5-3.5,4.9
		c-2.4,1.4-5.4,1.8-8.9,1.9c-2.8,0.1-5.3-0.3-7.6-1c-2.1-0.6-4-1.6-5.9-3.1L51.2,41.6L51.2,41.6z"/>
	<polygon fill="#747678" points="16,46.9 19.2,46.9 35.3,19.2 31.3,19.2 17.7,42.7 4.2,19.2 0,19.2 16,46.9 	"/>
	<path fill-rule="evenodd" clip-rule="evenodd" fill="#747678" d="M116.1,23.8L130,47h-4l-4.6-7.9l-7-11.9l-4.9,8
		c-1.6,0.6-3.2,1.2-4.8,1.8l8.4-13.2H116.1L116.1,23.8z M104.9,42.9l-2.5,4.1h-3.9l1.7-2.8C101.9,43.7,103.4,43.3,104.9,42.9
		L104.9,42.9z"/>
</g>
</svg>
